HIERARCHY
ROOT root
{
	OFFSET	0	13.1	24.9
	CHANNELS 6  Xposition Yposition Zposition Xrotation Yrotation Zrotation
	JOINT spine_1
	{
		OFFSET	0	9.99999	0
		CHANNELS 3  Xrotation Yrotation Zrotation
		JOINT spine_2
		{
			OFFSET	0	112	-10
			CHANNELS 3  Xrotation Yrotation Zrotation
			JOINT spine_3
			{
				OFFSET	0	206.5	19.3
				CHANNELS 3  Xrotation Yrotation Zrotation
				JOINT spine_4
				{
					OFFSET	0	110.4	14.6
					CHANNELS 3  Xrotation Yrotation Zrotation
					JOINT neck_1
					{
						OFFSET	0	71.8	-50.3
						CHANNELS 3  Xrotation Yrotation Zrotation
						JOINT neck_2
						{
							OFFSET	0	86.2	-25.8
							CHANNELS 3  Xrotation Yrotation Zrotation
							JOINT head_ee
							{
								OFFSET	0	179.8	-8.7
								CHANNELS 3  Xrotation Yrotation Zrotation
								End Site
								{
									OFFSET	1	0	0
								}
							}
						}
					}
					JOINT left_clavicle
					{
						OFFSET	-43.2	22.4	-70.8
						CHANNELS 3  Xrotation Yrotation Zrotation
						JOINT left_shoulder
						{
							OFFSET	-93.9	-5.79999	48.7
							CHANNELS 3  Xrotation Yrotation Zrotation
							JOINT left_elbow
							{
								OFFSET	-291.4	-30.8	15.2
								CHANNELS 3  Xrotation Yrotation Zrotation
								JOINT left_lowarm_twist
								{
									OFFSET	-110.7	-3.89999	13.6
									CHANNELS 3  Xrotation Yrotation Zrotation
									JOINT left_hand
									{
										OFFSET	-110.7	-3.89999	13.6
										CHANNELS 3  Xrotation Yrotation Zrotation
										JOINT left_ee
										{
											OFFSET	-80.8	-5.10001	12.1
											CHANNELS 3  Xrotation Yrotation Zrotation
											End Site
											{
												OFFSET	1	0	0
											}
										}
									}
								}
							}
						}
					}
					JOINT right_clavicle
					{
						OFFSET	43.2	22.4	-70.8
						CHANNELS 3  Xrotation Yrotation Zrotation
						JOINT right_shoulder
						{
							OFFSET	93.9	-5.79999	48.7
							CHANNELS 3  Xrotation Yrotation Zrotation
							JOINT right_elbow
							{
								OFFSET	291.4	-30.8	15.2
								CHANNELS 3  Xrotation Yrotation Zrotation
								JOINT right_lowarm_twist
								{
									OFFSET	110.7	-3.89999	13.6
									CHANNELS 3  Xrotation Yrotation Zrotation
									JOINT right_hand
									{
										OFFSET	110.7	-3.89999	13.6
										CHANNELS 3  Xrotation Yrotation Zrotation
										JOINT right_ee
										{
											OFFSET	80.8	-5.10001	12.1
											CHANNELS 3  Xrotation Yrotation Zrotation
											End Site
											{
												OFFSET	1	0	0
											}
										}
									}
								}
							}
						}
					}
				}
			}
		}
	}
	JOINT left_hip
	{
		OFFSET	-82.8	-127.5	0.300001
		CHANNELS 3  Xrotation Yrotation Zrotation
		JOINT left_knee
		{
			OFFSET	-28.2	-396.7	2.2
			CHANNELS 3  Xrotation Yrotation Zrotation
			JOINT left_ankle
			{
				OFFSET	-11.7	-411.3	35.4
				CHANNELS 3  Xrotation Yrotation Zrotation
				JOINT left_toes
				{
					OFFSET	0	-60	-88.6
					CHANNELS 3  Xrotation Yrotation Zrotation
					JOINT left_foot_ee
					{
						OFFSET	-22.5	-16.5	-42.2
						CHANNELS 3  Xrotation Yrotation Zrotation
						End Site
						{
							OFFSET	1	0	0
						}
					}
				}
			}
		}
	}
	JOINT right_hip
	{
		OFFSET	82.8	-127.5	0.300001
		CHANNELS 3  Xrotation Yrotation Zrotation
		JOINT right_knee
		{
			OFFSET	28.2	-396.7	2.2
			CHANNELS 3  Xrotation Yrotation Zrotation
			JOINT right_ankle
			{
				OFFSET	11.7	-411.3	35.4
				CHANNELS 3  Xrotation Yrotation Zrotation
				JOINT right_toes
				{
					OFFSET	0	-60	-88.6
					CHANNELS 3  Xrotation Yrotation Zrotation
					JOINT right_foot_ee
					{
						OFFSET	22.5	-16.5	-42.2
						CHANNELS 3  Xrotation Yrotation Zrotation
						End Site
						{
							OFFSET	1	0	0
						}
					}
				}
			}
		}
	}
}
MOTION
Frames: 8
Frame Time: 0.02
1723.21 606.211 -957.945 -151.213 -62.8211 -154.565 4.5167 0.188178 0.042681 4.51668 0.185081 0.0545689 4.51687 0.176217 0.078616 4.51691 0.186421 0.0497991 -9.11429 -1.23997 -4.92531 -9.04541 1.07634 -5.1274 -0.0 0.0 -0.0 5.76842 -16.5042 10.378 4.26898 -22.6142 67.8932 1.48577 -36.351 0.487816 -47.8612 -3.82327 4.56639 -2.55138 -16.4391 -24.7628 -0.0 0.0 -0.0 4.62032 6.62013 -8.60195 -26.1819 28.4971 -80.4161 0.246545 6.96328 -0.0150001 -33.6696 2.30445 -3.56994 -6.12016 0.665213 46.1816 0.0 0.0 0.0 7.50169 24.6189 1.44309 -22.933 0.249287 3.48698 39.2646 -13.461 -5.05302 -15.5638 0.0 0.0 -0.0 0.0 -0.0 45.6001 10.8387 -3.41172 -2.51506 -0.0953533 -0.37417 -0.145814 9.55098 -0.022441 -7.72548 0.0 0.0 0.0 0.0 0.0 
1750.02 600.331 -931.27 -149.793 -64.5804 -153.071 4.45992 0.129498 0.121732 4.45992 0.121489 0.129726 4.46019 0.103082 0.144784 4.46019 0.124654 0.126687 -7.95423 -1.71129 -3.35038 -7.92327 -0.819858 -3.69169 -0.0 0.0 -0.0 5.02041 -16.0652 8.80675 0.806466 -23.8973 67.783 1.58223 -38.0863 0.54617 -48.0327 -3.84303 4.57607 -2.72458 -17.0985 -26.3071 -0.0 0.0 -0.0 4.55619 3.50895 -8.63811 -26.3805 29.4903 -80.7183 0.230737 6.52078 -0.0131441 -35.3014 2.46589 -3.70319 -5.9887 0.915543 45.0887 0.0 0.0 0.0 6.95359 22.4185 -1.06154 -25.2 0.197793 3.83104 38.7887 -11.7647 -4.9635 -14.0788 0.0 0.0 -0.0 0.0 -0.0 47.624 10.2772 -4.51832 -14.9747 -0.321638 -2.269 3.77412 8.51332 0.571215 -5.82572 0.0 0.0 0.0 0.0 0.0 
1779.51 597.368 -908.334 -150.11 -65.8284 -153.007 4.4231 0.0201783 0.176223 4.42312 0.00892386 0.17715 4.42313 -0.0149218 0.176746 4.42309 0.0131792 0.176884 -7.11666 -1.99939 -2.19904 -7.1042 -2.13072 -2.60358 -0.0 0.0 -0.0 4.99004 -15.6757 8.77197 -1.97655 -24.6869 68.07 1.53249 -37.2014 0.515787 -48.1542 -3.85706 4.5829 -2.95632 -16.4934 -27.7829 -0.0 0.0 -0.0 4.55852 1.79128 -8.7242 -26.2317 30.6569 -80.5122 0.23967 6.77095 -0.0141781 -36.809 2.61837 -3.82219 -5.8673 1.1037 44.0679 0.0 0.0 0.0 5.64959 20.2895 -2.68422 -26.8221 0.152611 4.07586 37.4247 -11.1467 -4.82319 -13.1076 0.0 0.0 -0.0 0.0 -0.0 49.1126 10.1932 -4.33271 -23.6192 -0.235139 -3.59133 6.32526 5.85717 0.937594 -4.49601 0.0 0.0 0.0 0.0 0.0 
1805.18 599.891 -893.595 -150.379 -66.7607 -153.521 4.4096 -0.0517837 0.20318 4.40962 -0.0646076 0.199473 4.40938 -0.090829 0.188981 4.40934 -0.0598431 0.200954 -6.57667 -2.11665 -1.43313 -6.57155 -2.87887 -1.85284 -0.0 0.0 -0.0 5.28001 -15.8339 9.38016 -4.19491 -25.325 69.5178 1.47312 -36.1175 0.48034 -48.2415 -3.86714 4.58778 -3.14044 -15.6072 -28.8016 -0.0 0.0 -0.0 4.36817 2.01478 -8.3378 -25.6063 31.5424 -80.3884 0.29018 8.18022 -0.02075 -37.4414 2.68326 -3.87091 -5.76916 0.857416 42.9882 0.0 0.0 0.0 5.43706 18.7624 -3.15063 -27.7062 0.125067 4.20875 34.8707 -11.6561 -4.59071 -13.0228 0.0 0.0 -0.0 0.0 -0.0 49.3498 10.3697 -4.07797 -29.7357 -0.0540999 -4.51212 8.54977 3.17368 1.24472 -3.49177 0.0 0.0 0.0 0.0 0.0 
1826.25 605.364 -882.534 -150.271 -66.8366 -153.774 4.41463 -0.0861139 0.122424 4.41463 -0.0937295 0.116696 4.41444 -0.108553 0.10305 4.41444 -0.0909158 0.118901 -6.80724 -1.7936 -1.01549 -6.80481 -2.59171 -1.3745 -0.0 0.0 -0.0 5.46131 -16.0457 9.7527 -5.05872 -24.9569 71.3928 1.26405 -32.0522 0.363096 -48.0425 -3.84417 4.57663 -3.44164 -15.7576 -31.1726 -0.0 0.0 -0.0 4.32444 2.12259 -8.24608 -24.7562 32.9536 -80.3861 0.337082 9.48001 -0.0279502 -38.6034 2.80387 -3.95856 -5.67404 0.306584 41.751 0.0 0.0 0.0 5.37161 17.6372 -2.63328 -28.3331 0.104295 4.30272 33.3742 -11.8572 -4.44495 -13.0385 0.0 0.0 -0.0 0.0 -0.0 49.0046 10.884 -4.08564 -33.1089 0.0875157 -5.01032 10.1897 -1.06828 1.45768 -2.84401 0.0 0.0 0.0 0.0 0.0 
1845.53 608.442 -870.918 -150.739 -66.5101 -154.338 4.41992 0.0524283 -0.0430325 4.41992 0.0550603 -0.0396091 4.41988 0.059878 -0.0318613 4.41988 0.0540947 -0.040918 -6.97208 -1.45411 -0.777932 -6.97073 -2.13812 -1.07136 -0.0 0.0 -0.0 5.54021 -16.4625 9.89067 -5.60507 -24.646 72.7475 1.01096 -26.6011 0.238996 -47.1595 -3.7427 4.52615 -3.81446 -17.2406 -34.7226 -0.0 0.0 -0.0 4.49807 2.48191 -8.57242 -23.6098 33.6436 -78.3956 0.373835 10.4918 -0.0343237 -39.3261 2.87978 -4.01184 -5.47257 -0.734662 39.2756 0.0 0.0 0.0 7.74237 14.0751 -2.33591 -32.4936 -0.0594966 4.92007 31.1334 -6.7878 -4.10952 -11.7228 0.0 0.0 -0.0 0.0 -0.0 46.5417 12.2522 -4.38405 -34.1483 0.137045 -5.16209 12.0683 -6.48484 1.70318 -2.42261 0.0 0.0 0.0 0.0 0.0 
1864.13 608.39 -863.557 -153.126 -65.2655 -156.868 4.24049 0.133672 -0.137804 4.24049 0.14217 -0.129019 4.24017 0.15854 -0.108274 4.24018 0.13945 -0.131954 -7.07431 -0.895222 0.0535809 -7.07428 -1.70198 -0.128505 -0.0 0.0 -0.0 6.01374 -16.6585 10.8946 -6.03178 -23.8468 73.82 0.773838 -20.9736 0.14324 -46.1958 -3.63286 4.4693 -4.06847 -18.2595 -37.1918 -0.0 0.0 -0.0 4.5029 2.25443 -8.59282 -23.6955 35.5113 -76.3303 0.384376 10.7808 -0.0362693 -40.5365 3.0084 -4.09893 -5.33011 -1.44117 37.5904 0.0 0.0 0.0 9.30035 11.5873 -1.56713 -36.4656 -0.257357 5.49714 28.3897 -1.46445 -3.74774 -10.6596 0.0 0.0 -0.0 0.0 -0.0 45.2028 12.9378 -5.34784 -32.2494 0.0486451 -4.88416 12.8808 -10.3057 1.81379 -2.82053 0.0 0.0 0.0 0.0 0.0 
1885.39 615.31 -854.124 -154.764 -64.5709 -158.122 4.19468 0.222965 -0.398076 4.19473 0.247843 -0.383082 4.19304 0.298388 -0.345171 4.19295 0.24013 -0.387963 -6.75185 -0.361901 0.239737 -6.75161 -0.845429 0.168387 -0.0 0.0 -0.0 5.48366 -16.8127 9.74247 -7.67899 -23.1651 74.7937 0.558108 -15.4547 0.075731 -45.2223 -3.52288 4.41 -4.24471 -20.3293 -39.4556 -0.0 0.0 -0.0 4.60505 2.25104 -8.79537 -23.0968 36.5342 -74.5388 0.396005 11.099 -0.0384763 -41.6699 3.13048 -4.17799 -5.24263 -2.34192 36.2699 0.0 0.0 0.0 11.0146 8.60091 -1.21473 -40.2279 -0.481332 6.03016 24.3002 4.96621 -3.25072 -9.43759 0.0 0.0 -0.0 0.0 -0.0 43.5965 13.1645 -6.4472 -31.2187 0.00453813 -4.73214 15.2403 -14.8956 2.1418 -2.5656 0.0 0.0 0.0 0.0 0.0 
